PathFileType	4	(X/Y/Z)	..\data\2014031\dynamic\2014031_C5_05.trc
DataRate	CameraRate	NumFrames	NumMarkers	Units	OrigDataRate	OrigDataStartFrame	OrigNumFrames
100.000000	100.000000	4	52	mm	100.000000	76	153
Frame#	Time	L_IAS			L_IPS			R_IPS			R_IAS			L_FTC			L_FLE			L_FME			L_FAX			L_TTC			L_FAL			L_TAM			L_FCC			L_FM1			L_FM2			L_FM5			R_FTC			R_FLE			R_FME			R_FAX			R_TTC			R_FAL			R_TAM			R_FCC			R_FM1			R_FM2			R_FM5			CV7			TV10			SXS			SJN			L_SIA			L_SRS			L_SAA			L_SAE			L_HLE			L_HME			L_UOA			L_RSP			L_UHE			L_HM2			L_HM5			R_SIA			R_SRS			R_SAA			R_SAE			R_HLE			R_HME			R_UOA			R_RSP			R_UHE			R_HM2			R_HM5			
		X1	Y1	Z1	X2	Y2	Z2	X3	Y3	Z3	X4	Y4	Z4	X5	Y5	Z5	X6	Y6	Z6	X7	Y7	Z7	X8	Y8	Z8	X9	Y9	Z9	X10	Y10	Z10	X11	Y11	Z11	X12	Y12	Z12	X13	Y13	Z13	X14	Y14	Z14	X15	Y15	Z15	X16	Y16	Z16	X17	Y17	Z17	X18	Y18	Z18	X19	Y19	Z19	X20	Y20	Z20	X21	Y21	Z21	X22	Y22	Z22	X23	Y23	Z23	X24	Y24	Z24	X25	Y25	Z25	X26	Y26	Z26	X27	Y27	Z27	X28	Y28	Z28	X29	Y29	Z29	X30	Y30	Z30	X31	Y31	Z31	X32	Y32	Z32	X33	Y33	Z33	X34	Y34	Z34	X35	Y35	Z35	X36	Y36	Z36	X37	Y37	Z37	X38	Y38	Z38	X39	Y39	Z39	X40	Y40	Z40	X41	Y41	Z41	X42	Y42	Z42	X43	Y43	Z43	X44	Y44	Z44	X45	Y45	Z45	X46	Y46	Z46	X47	Y47	Z47	X48	Y48	Z48	X49	Y49	Z49	X50	Y50	Z50	X51	Y51	Z51	X52	Y52	Z52	

77	0.76	899.1636962890627	962.130798339844	-327.0814819335938	710.0770263671876	983.9976196289065	-257.7090759277344	714.4945068359376	986.1918945312502	-151.7675323486328	910.1414184570315	967.739929199219	-102.2653503417969	806.4263916015627	875.676940917969	-397.6578979492189	929.0330810546877	485.8499450683595	-358.5035095214844	945.6987304687502	478.0860900878907	-230.773422241211	900.2215576171877	439.1122436523439	-359.6502685546876	964.2795410156252	408.024139404297	-307.5525207519532	670.6967773437501	186.9105377197266	-320.2508544921876	712.8574218750001	175.4167785644532	-236.2202911376954	612.3140258789064	170.3443450927735	-265.9201049804688	758.7523803710939	49.32524490356447	-254.8808898925782	764.3693847656251	64.65673065185548	-310.7059326171876	718.7938842773439	75.05175781250001	-351.1007385253907	837.557312011719	876.1929321289065	-28.01011276245118	872.4877929687502	469.4819641113282	-88.8206024169922	860.5290527343752	462.8740844726564	-217.2384490966797	862.701599121094	407.8087768554689	-89.15411376953126	917.6579589843752	406.2007141113282	-151.0276489257813	786.699157714844	71.69592285156251	-129.7809600830078	813.376892089844	91.03401947021486	-217.5561218261719	742.3996582031251	22.69363594055176	-179.2880249023438	935.025329589844	20.78584289550782	-200.2075347900391	943.6355590820315	35.76615905761719	-140.0647125244141	896.8399658203127	18.11893463134766	-89.40227508544923	783.6499023437502	1507.46630859375	-178.1415100097657	694.0432128906251	1232.902465820313	-201.0860137939454	917.9504394531252	1224.454711914063	-217.4720306396485	894.2432861328127	1418.309692382813	-203.0005493164063	684.2478637695314	1270.900024414063	-310.5538940429688	730.7485961914064	1426.527465820313	-322.1350097656251	775.0162353515627	1424.089721679688	-385.724334716797	822.8279418945315	1424.95068359375	-388.7387695312501	813.945251464844	1098.637573242188	-492.2299194335939	778.0462036132815	1063.699462890625	-416.440399169922	782.0270996093752	1056.60302734375	-472.1229858398439	1020.114318847656	941.3873291015627	-402.1546936035157	995.3758544921877	912.6801757812502	-474.5916442871095	1096.21875	895.8045654296877	-407.5575256347657	1037.242797851563	847.2305297851565	-472.5396423339845	697.4287719726564	1261.23388671875	-95.18414306640626	756.4104003906251	1414.55615234375	-63.77548599243165	815.8684082031252	1407.923828125	-7.980276107788088	860.9996337890627	1394.910278320313	1.950246334075928	813.109802246094	1058.007934570313	56.59677505493165	771.1806640625002	1048.493041992188	-19.61270904541016	769.2227783203127	1035.659790039063	22.65388488769532	916.810974121094	824.5783691406252	2.415968179702759	882.5148925781252	816.497985839844	73.53263092041017	947.5559082031252	733.8502197265626	2.129124164581299	881.4494628906252	731.8654785156251	79.58827209472658	
78	0.77	914.713806152344	964.084411621094	-325.6329345703126	725.1988525390626	985.3947753906252	-257.9842834472657	729.0619506835939	987.5927734375002	-151.9929504394532	924.317321777344	968.6575927734377	-101.0757446289063	823.6218872070315	877.8979492187502	-397.574188232422	953.792175292969	489.6314086914064	-357.2588500976563	970.3381958007815	483.0308227539064	-229.6183776855469	927.105895996094	441.0814819335939	-358.4718933105469	992.3653564453127	413.2607727050782	-306.0666503906251	711.5364379882814	175.5248718261719	-319.4823913574219	753.6616210937501	167.1326599121094	-235.1520690917969	653.1935424804689	155.6295623779297	-265.4875793457032	808.1199340820315	44.7363624572754	-253.1416778564454	813.1829223632815	60.45787048339845	-308.7616577148438	767.0842285156251	67.21956634521486	-349.4925842285157	850.4046630859377	876.7559204101565	-27.70422744750977	875.8887329101565	469.5527343750001	-88.22054290771486	863.6558227539065	463.1058349609376	-216.7552795410157	865.1142578125002	407.7793273925782	-88.6254348754883	920.0418701171877	405.5953979492189	-150.4620513916016	786.9063720703127	71.93955230712892	-130.1327362060547	813.8297119140627	91.19283294677736	-217.8789978027344	742.5225219726564	23.03622817993164	-179.8509216308594	935.1865234375002	20.62177658081055	-200.0689697265626	943.7974243164065	35.51884078979493	-140.0125885009766	896.7715454101565	17.97483825683594	-89.42046356201173	797.805603027344	1508.630004882813	-178.7361145019532	708.0972290039064	1234.059936523438	-200.5163574218751	932.330261230469	1225.890258789063	-216.8833465576172	908.4592895507815	1419.658569335938	-203.1316680908204	698.6909790039064	1271.810302734375	-309.9182739257813	745.0718383789064	1427.394897460938	-322.0305480957032	789.1297607421877	1424.693237304688	-385.6280212402345	836.7135009765627	1425.5224609375	-388.9989013671876	822.8328247070315	1098.5888671875	-490.7921447753907	785.990905761719	1065.209838867188	-415.0522460937501	789.602722167969	1058.265380859375	-470.4127502441407	1021.443359375	929.9676513671877	-403.4699707031251	995.019958496094	903.6992187500002	-476.2745971679689	1094.245239257813	879.2579345703127	-409.2265625000001	1032.4794921875	835.7999267578127	-475.1903686523439	712.5270996093751	1262.673095703125	-94.04947662353517	770.4629516601565	1416.135620117188	-63.76087188720705	830.130554199219	1410.055053710938	-8.015764236450197	875.2844238281252	1397.614135742188	1.664775133132935	834.4058837890627	1059.640258789063	57.03882980346681	793.4116821289065	1048.802734375	-18.9585132598877	791.0794677734377	1035.816162109375	23.22486305236817	946.833190917969	830.4583740234377	1.568227648735047	912.5811157226565	820.5041503906252	72.22203063964845	982.2230224609377	741.2835693359376	1.343003392219544	915.4506835937502	735.9444580078126	78.0226287841797	
79	0.78	930.292419433594	965.5031738281252	-324.2091064453126	740.3104248046876	986.2938232421877	-258.3314819335938	743.6332397460939	988.558288574219	-152.305908203125	938.4742431640627	969.139587402344	-99.8880310058594	840.840515136719	879.6689453125002	-397.5156860351564	977.7876586914065	492.8222961425782	-356.1598205566407	994.1246337890627	487.3627929687501	-228.5804748535157	953.365417480469	442.4642944335939	-357.4215698242188	1019.622253417969	418.1746520996095	-304.6780090332032	753.4342651367189	163.7228546142578	-318.6988525390626	795.3999633789065	158.5192565917969	-234.1020507812501	695.5982666015626	140.5013427734375	-264.9765625000001	858.2236328125002	40.50720596313477	-251.3406524658204	862.5299072265627	56.43375396728517	-306.7983703613282	816.097595214844	59.57873916625978	-347.7842407226563	863.2405395507815	876.9826660156252	-27.40807533264161	879.3836059570315	469.5939025878907	-87.64341735839845	867.0045166015627	463.3043212890626	-216.2749938964844	867.604187011719	407.741424560547	-88.12868499755861	922.5032348632815	404.960174560547	-149.9130859375	787.1506347656252	72.22460937500001	-130.5931396484375	814.3777465820315	91.39513397216798	-218.2874298095704	742.7358398437501	23.41480255126953	-180.5390930175782	935.391540527344	20.49374389648438	-199.9619445800782	943.9805908203127	35.3102035522461	-139.9875183105469	896.7017211914065	17.90114212036133	-89.48108673095705	811.994323730469	1509.397094726563	-179.4208679199219	722.1921386718751	1234.822631835938	-199.9975585937501	946.7014160156252	1226.860107421875	-216.2069702148438	922.7326660156252	1420.58349609375	-203.2509155273438	713.2184448242189	1272.234497070313	-309.2676086425782	759.4918212890626	1427.788452148438	-321.9757385253907	803.355651855469	1424.828735351563	-385.5774230957032	850.736755371094	1425.606689453125	-389.3175354003907	831.800476074219	1098.168212890625	-489.3448486328126	794.077087402344	1066.354248046875	-413.690887451172	797.2905273437502	1059.59130859375	-468.6920471191407	1022.1171875	918.5798950195315	-404.7318725585939	994.3033447265627	894.8927001953127	-477.9398803710939	1091.263305664063	862.9654541015627	-410.7633666992189	1027.195190429688	824.8331298828127	-477.825164794922	727.6533813476564	1263.6513671875	-92.92626953125001	784.4287719726565	1417.321533203125	-63.80910873413087	844.3089599609377	1411.805053710938	-8.082362174987795	889.477478027344	1399.971313476563	1.361548900604248	855.5284423828127	1061.078247070313	57.54153442382814	815.5855712890627	1048.88037109375	-18.26492881774903	812.8059082031252	1035.748413085938	23.82795524597168	976.9632568359377	836.7488403320315	0.7165095806121827	942.657165527344	824.6853637695315	70.79028320312501	1016.749145507813	749.3342895507814	0.3161008059978486	949.3575439453127	740.3931884765626	76.0436248779297	
80	0.79	945.8785400390627	966.362976074219	-322.8704528808594	755.4039306640626	986.6736450195315	-258.7203369140626	758.1950683593751	989.0676879882815	-152.6844940185547	952.625427246094	969.167907714844	-98.73222351074222	858.0045166015627	880.9334716796877	-397.4660949707032	1000.992980957031	495.3515014648439	-355.1990051269532	1016.994018554688	490.9801330566407	-227.6418151855469	978.974060058594	443.2347412109376	-356.4833374023438	1045.991821289063	422.6965332031251	-303.3775024414063	796.3878173828127	151.833724975586	-317.9109191894532	838.0661621093752	149.863998413086	-233.0809631347657	739.5653686523439	125.2703704833985	-264.4119873046876	909.000183105469	36.94140625000001	-249.5576477050782	912.3837890625002	52.91610336303712	-304.8917541503907	865.850769042969	52.49898910522462	-346.0671691894532	876.0955810546877	876.8735961914065	-27.12369346618653	883.0069580078127	469.5819396972657	-87.09127044677736	870.6326293945315	463.4431152343751	-215.7945861816407	870.2089843750002	407.6746520996095	-87.66418457031251	925.0865478515627	404.274139404297	-149.3678588867188	787.428894042969	72.5477752685547	-131.157470703125	815.031188964844	91.64405822753908	-218.7710113525391	743.0377807617189	23.83157920837403	-181.3506469726563	935.6318359375002	20.40845108032227	-199.8881530761719	944.1696777343752	35.14439773559571	-139.9861602783203	896.6198730468752	17.89657974243164	-89.58928680419923	826.248718261719	1509.753295898438	-180.1897888183594	736.3669433593751	1235.169067382813	-199.5437927246094	961.0811157226565	1227.329467773438	-215.4677124023438	937.0828247070315	1421.057861328125	-203.3651428222657	727.8051757812501	1272.152587890625	-308.5823364257813	774.0235595703127	1427.694213867188	-321.9726257324219	817.7050781250002	1424.477172851563	-385.5802001953126	864.9310302734377	1425.187622070313	-389.6861572265626	840.8475341796877	1097.355834960938	-487.8940734863282	802.3168945312502	1067.103637695313	-412.3583374023439	805.1069946289065	1060.551879882813	-466.9702453613282	1022.189575195313	907.3037719726565	-405.9277648925782	993.310974121094	886.3042602539065	-479.5759277343751	1087.380493164063	847.061462402344	-412.1439514160157	1021.526916503906	814.3834228515627	-480.4210815429689	742.7798461914064	1264.152587890625	-91.85327148437501	798.330749511719	1418.094848632813	-63.92358016967775	858.4228515625002	1413.13720703125	-8.190206527709963	903.6032714843752	1401.915283203125	1.041119337081909	876.504821777344	1062.27099609375	58.12675857543947	837.6032714843752	1048.707397460938	-17.49723243713379	834.3956298828127	1035.423583984375	24.50604057312012	1007.095397949219	843.413757324219	-0.160430520772934	972.6842041015627	829.0076293945315	69.23350524902345	1051.034423828125	757.9621582031251	-0.9489396214485171	983.118103027344	745.1672363281251	73.65798187255861	
